  
<svg xmlns="http://www.w3.org/2000/svg">
<symbol id="icon-grow" viewBox="0 0 24 24">
<path d="M12.707 18.293l-5.293-5.293h11.586c0.552 0 1-0.448 1-1s-0.448-1-1-1h-11.586l5.293-5.293c0.391-0.391 0.391-1.024 0-1.414s-1.024-0.391-1.414 0l-7 7c-0.096 0.096-0.168 0.206-0.217 0.324-0.051 0.122-0.076 0.253-0.076 0.383 0 0.256 0.098 0.512 0.293 0.707l7 7c0.391 0.391 1.024 0.391 1.414 0s0.391-1.024 0-1.414z"></path>
</symbol>
<symbol id="icon-manage" viewBox="0 0 24 24">
<path d="M10 12C12.2091 12 14 10.2091 14 8C14 5.79086 12.2091 4 10 4C7.79086 4 6 5.79086 6 8C6 10.2091 7.79086 12 10 12Z" />
<path d="M10.67 13.02C10.45 13.01 10.23 13 10 13C7.58 13 5.32 13.67 3.39 14.82C2.51 15.34 2 16.32 2 17.35V20H11.26C10.5537 18.9924 10.127 17.8157 10.0234 16.5896C9.91971 15.3635 10.1428 14.1318 10.67 13.02V13.02ZM20.75 16C20.75 15.78 20.72 15.58 20.69 15.37L21.83 14.36L20.83 12.63L19.38 13.12C19.06 12.85 18.7 12.64 18.3 12.49L18 11H16L15.7 12.49C15.3 12.64 14.94 12.85 14.62 13.12L13.17 12.63L12.17 14.36L13.31 15.37C13.28 15.58 13.25 15.78 13.25 16C13.25 16.22 13.28 16.42 13.31 16.63L12.17 17.64L13.17 19.37L14.62 18.88C14.94 19.15 15.3 19.36 15.7 19.51L16 21H18L18.3 19.51C18.7 19.36 19.06 19.15 19.38 18.88L20.83 19.37L21.83 17.64L20.69 16.63C20.72 16.42 20.75 16.22 20.75 16V16ZM17 18C15.9 18 15 17.1 15 16C15 14.9 15.9 14 17 14C18.1 14 19 14.9 19 16C19 17.1 18.1 18 17 18Z" />
</symbol>
<symbol id="icon-add" viewBox="0 0 24 24">
<path d="M4 22H16V20H4V8H2V20C2 21.103 2.897 22 4 22Z" />
<path d="M20 2H8C6.897 2 6 2.897 6 4V16C6 17.103 6.897 18 8 18H20C21.103 18 22 17.103 22 16V4C22 2.897 21.103 2 20 2ZM18 11H15V14H13V11H10V9H13V6H15V9H18V11Z" />
</symbol>
<symbol id="icon-profile" viewBox="0 0 30 30">
<path d="M15 2.5C13.3585 2.5 11.733 2.82332 10.2165 3.45151C8.69989 4.07969 7.3219 5.00043 6.16117 6.16117C3.81696 8.50537 2.5 11.6848 2.5 15C2.5 18.3152 3.81696 21.4946 6.16117 23.8388C7.3219 24.9996 8.69989 25.9203 10.2165 26.5485C11.733 27.1767 13.3585 27.5 15 27.5C18.3152 27.5 21.4946 26.183 23.8388 23.8388C26.183 21.4946 27.5 18.3152 27.5 15C27.5 13.3585 27.1767 11.733 26.5485 10.2165C25.9203 8.69989 24.9996 7.3219 23.8388 6.16117C22.6781 5.00043 21.3001 4.07969 19.7835 3.45151C18.267 2.82332 16.6415 2.5 15 2.5ZM8.8375 22.85C9.375 21.725 12.65 20.625 15 20.625C17.35 20.625 20.625 21.725 21.1625 22.85C19.4117 24.245 17.2386 25.0032 15 25C12.675 25 10.5375 24.2 8.8375 22.85ZM22.95 21.0375C21.1625 18.8625 16.825 18.125 15 18.125C13.175 18.125 8.8375 18.8625 7.05 21.0375C5.72023 19.3058 4.99958 17.1834 5 15C5 9.4875 9.4875 5 15 5C20.5125 5 25 9.4875 25 15C25 17.275 24.225 19.375 22.95 21.0375ZM15 7.5C12.575 7.5 10.625 9.45 10.625 11.875C10.625 14.3 12.575 16.25 15 16.25C17.425 16.25 19.375 14.3 19.375 11.875C19.375 9.45 17.425 7.5 15 7.5ZM15 13.75C14.5027 13.75 14.0258 13.5525 13.6742 13.2008C13.3225 12.8492 13.125 12.3723 13.125 11.875C13.125 11.3777 13.3225 10.9008 13.6742 10.5492C14.0258 10.1975 14.5027 10 15 10C15.4973 10 15.9742 10.1975 16.3258 10.5492C16.6775 10.9008 16.875 11.3777 16.875 11.875C16.875 12.3723 16.6775 12.8492 16.3258 13.2008C15.9742 13.5525 15.4973 13.75 15 13.75Z" />
</symbol>
<symbol id="icon-megaphone" viewBox="0 0 17 19">
<path d="M9.74359 4H1.94872C1.43189 4 0.936222 4.21071 0.570766 4.58579C0.205311 4.96086 0 5.46957 0 6V10C0 10.5304 0.205311 11.0391 0.570766 11.4142C0.936222 11.7893 1.43189 12 1.94872 12H2.92308V16C2.92308 16.2652 3.02573 16.5196 3.20846 16.7071C3.39119 16.8946 3.63902 17 3.89744 17H5.84615C6.10457 17 6.3524 16.8946 6.53513 16.7071C6.71786 16.5196 6.82051 16.2652 6.82051 16V12H9.74359L14.6154 16V0L9.74359 4ZM12.6667 11.6L10.7179 10H1.94872V6H10.7179L12.6667 4.4V11.6ZM19 8C19 9.71 18.0646 11.26 16.5641 12V4C18.0549 4.75 19 6.3 19 8Z"/>
</symbol>

</svg>